<svg xmlns="http://www.w3.org/2000/svg" width="17.968" height="14.6" viewBox="0 0 17.968 14.6">
  <metadata><?xpacket begin="﻿" id="W5M0MpCehiHzreSzNTczkc9d"?>
<x:xmpmeta xmlns:x="adobe:ns:meta/" x:xmptk="Adobe XMP Core 5.6-c138 79.159824, 2016/09/14-01:09:01        ">
   <rdf:RDF xmlns:rdf="http://www.w3.org/1999/02/22-rdf-syntax-ns#">
      <rdf:Description rdf:about=""/>
   </rdf:RDF>
</x:xmpmeta>
                                                                                                    
                                                                                                    
                                                                                                    
                                                                                                    
                                                                                                    
                                                                                                    
                                                                                                    
                                                                                                    
                                                                                                    
                                                                                                    
                                                                                                    
                                                                                                    
                                                                                                    
                                                                                                    
                                                                                                    
                                                                                                    
                                                                                                    
                                                                                                    
                                                                                                    
                                                                                                    
                           
<?xpacket end="w"?></metadata>
<defs>
    <style>
      .cls-1 {
        fill-rule: evenodd;
      }
    </style>
  </defs>
  <path id="twitter" class="cls-1" d="M994.917,4355.05a7.445,7.445,0,0,1-2.122.59,3.747,3.747,0,0,0,1.627-2.02,7.563,7.563,0,0,1-2.345.9,3.7,3.7,0,0,0-6.316,3.33,10.451,10.451,0,0,1-7.62-3.86,3.7,3.7,0,0,0,1.142,4.93,3.738,3.738,0,0,1-1.667-.46h0a3.694,3.694,0,0,0,2.971,3.62,3.837,3.837,0,0,1-1.011.13,4.076,4.076,0,0,1-.7-0.07,3.7,3.7,0,0,0,3.486,2.61,7.43,7.43,0,0,1-4.547,1.59,8.619,8.619,0,0,1-.88-0.05,10.492,10.492,0,0,0,16.14-8.76v-0.56A7.429,7.429,0,0,0,994.917,4355.05Z" transform="translate(-976.938 -4353.34)"/>
</svg>
